# xmcd
#
# Track frame offsets: 
#        150
#        18208
#        30986
#        43857
#        56413
#        71332
#        84468
#        98465
#        113079
#        128237
#        143709
#        155674
#        169548
#
# Disc length: 2463 seconds
#
# Revision: 0
# Processed by: cddbd v1.5.2PL0 Copyright (c) Steve Scherf et al.
# Submitted via: ExactAudioCopyFreeDBPlugin 1.0
#
DISCID=98099d0d
DTITLE=Fredda - Le Chant Des Murmures
DYEAR=1900
DGENRE=Chanson
TTITLE0=Chant du retour
TTITLE1=Jardin déserts
TTITLE2=Pendant que je me parle
TTITLE3=Le murmure des champs
TTITLE4=Calavera
TTITLE5=Habitué à moi
TTITLE6=Michel va m'appeler
TTITLE7=L'amour antique
TTITLE8=Quand j'étais une jeune fille
TTITLE9=Les barres
TTITLE10=Le chant des murmures
TTITLE11=Le village
TTITLE12=Träume
EXTD=
EXTT0=
EXTT1=
EXTT2=
EXTT3=
EXTT4=
EXTT5=
EXTT6=
EXTT7=
EXTT8=
EXTT9=
EXTT10=
EXTT11=
EXTT12=
PLAYORDER=
